<?xml version="1.0" encoding="utf-8"?>
<svg id="svg2" viewBox="105.96 293.312 112.02 75.883" xmlns="http://www.w3.org/2000/svg" xmlns:bx="https://boxy-svg.com" width="112.02px" height="112.02px"><desc>Source: openclipart.org/detail/209545</desc><defs><bx:export><bx:file format="png" href="#object-0" excluded="true"/><bx:file format="png" href="#object-0" path="Untitled 5.png" excluded="true"/><bx:file format="png" path="Untitled 4.png"/><bx:file format="svg" path="Untitled 2.svg"/><bx:file format="png" href="#object-2" path="Untitled 3.png"/></bx:export><bx:guide x="90.956" y="385.602" angle="90"/><bx:guide x="24.34" y="260.057" angle="0"/><bx:guide x="503.461" y="247.247" angle="-90"/><bx:export><bx:file format="png" href="#object-0" excluded="true"/><bx:file format="png" path="Untitled 4.png" excluded="true"/><bx:file format="svg" path="Untitled 2.svg" excluded="true"/></bx:export></defs><desc>Source: openclipart.org/detail/209545</desc><desc>Created with Fabric.js 3.6.6</desc><g transform="matrix(0.558092, 0, 0, 0.558092, 161.97226, 331.254639)" id="object-0" style=""><g style=""><g transform="matrix(1 0 0 1 0 0)"><path style="stroke: none; stroke-width: 1; stroke-dasharray: none; stroke-linecap: butt; stroke-dashoffset: 0; stroke-linejoin: miter; stroke-miterlimit: 4; fill-rule: nonzero; opacity: 1; fill: rgb(255, 255, 255);" transform=" translate(-281.27, -403.33)" d="m 281.375 335.34375 l -84.3125 24.53125 l -16.15625 20.4375 l 73.375 25.59375 l 21.28125 -25.8125 l 5.59375 2.375 l 5.59375 -2.375 l 22.15625 26.46875 l 72.71875 -25.8125 l -17 -22.15625 l -83.25 -23.25 z m 0 6.6875 l 58.96875 17.40625 L 281.375 376 l -59.59375 -17.21875 l 59.59375 -16.75 z m 4.625 51.1875 l -0.21875 77.875 l 78.3125 -32.0625 l 0.21875 -43.65625 l -58.71875 19.34375 l -17.21875 -21.5 l -2.375 0 z M 274.71875 393.4375 L 257.5 414.9375 L 198.78125 395.59375 L 199 439.25 l 78.3125 32.0625 l -0.21875 -77.875 l -2.375 0 z" stroke-linecap="round" id="object-2"/></g><g transform="matrix(1 0 0 1 -30.72 -218.61)" style=""><text style="fill: rgb(255, 255, 255); font-family: Arial; font-size: 64px; white-space: pre;"/></g></g></g><desc>Source: openclipart.org/detail/209545</desc><desc>Created with Fabric.js 3.6.6</desc></svg>